<?xml version="1.0" encoding="utf-8"?>
<!-- Generator: Adobe Illustrator 13.0.2, SVG Export Plug-In  -->
<!DOCTYPE svg PUBLIC "-//W3C//DTD SVG 1.1//EN" "http://www.w3.org/Graphics/SVG/1.1/DTD/svg11.dtd" [
	<!ENTITY ns_flows "http://ns.adobe.com/Flows/1.0/">
]>
<svg version="1.1"
	 xmlns="http://www.w3.org/2000/svg" xmlns:xlink="http://www.w3.org/1999/xlink" xmlns:a="http://ns.adobe.com/AdobeSVGViewerExtensions/3.0/"
	 x="0px" y="0px" width="222px" height="24px" viewBox="-1.116 -1.117 222 24" enable-background="new -1.116 -1.117 222 24"
	 xml:space="preserve">
<defs>
</defs>
<polygon fill="#FFFFFF" points="43.567,19.041 36.594,3.046 40.413,3.046 45.223,14.961 50.152,3.046 53.731,3.046 47.051,19.041 
	"/>
<rect x="54.967" y="3.046" fill="#FFFFFF" width="3.514" height="15.996"/>
<g>
	<defs>
		<rect id="SVGID_1_" width="219.479" height="22.148"/>
	</defs>
	<clipPath id="SVGID_2_">
		<use xlink:href="#SVGID_1_"  overflow="visible"/>
	</clipPath>
	<path clip-path="url(#SVGID_2_)" fill="#FFFFFF" d="M61.012,3.045h7.323c2.575,0,4.476,0.672,5.702,2.02
		c1.226,1.345,1.84,3.432,1.84,6.261c0,1.459-0.206,2.712-0.616,3.76c-0.409,1.048-1.024,1.898-1.844,2.551
		c-0.631,0.508-1.306,0.87-2.024,1.084c-0.718,0.214-1.705,0.321-2.959,0.321h-7.421V3.045z M68.27,5.832h-3.896v10.424h3.896
		c1.487,0,2.513-0.373,3.079-1.12c0.566-0.748,0.85-2.111,0.85-4.092c0-1.972-0.284-3.335-0.85-4.085
		C70.782,6.207,69.756,5.832,68.27,5.832"/>
	<path clip-path="url(#SVGID_2_)" fill="#FFFFFF" d="M85.136,5.832c-1.217,0-2.136,0.304-2.754,0.914
		c-0.621,0.61-0.962,1.542-1.027,2.796l9.302,0.012v2.784h-9.324c0.007,1.393,0.303,2.395,0.886,3.004s1.556,0.914,2.918,0.914h5.52
		v2.786h-5.683c-1.254,0-2.241-0.107-2.958-0.321c-0.717-0.214-1.391-0.576-2.022-1.084c-0.819-0.652-1.433-1.503-1.843-2.551
		c-0.409-1.048-0.616-2.301-0.616-3.76c0-2.829,0.613-4.917,1.84-6.261c1.224-1.347,3.124-2.02,5.698-2.02h5.585v2.786H85.136z"/>
	<path clip-path="url(#SVGID_2_)" fill="#FFFFFF" d="M92.349,10.88c0-2.75,0.659-4.795,1.974-6.138
		c1.316-1.341,3.319-2.012,6.008-2.012c2.711,0,4.717,0.679,6.019,2.035c1.302,1.357,1.952,3.449,1.952,6.278
		c0,2.83-0.65,4.926-1.952,6.29s-3.307,2.045-6.019,2.045c-2.741,0-4.756-0.685-6.046-2.056
		C92.995,15.951,92.349,13.805,92.349,10.88 M100.331,5.473c-1.442,0-2.52,0.45-3.233,1.349c-0.713,0.9-1.07,2.26-1.07,4.081
		c0,1.974,0.346,3.419,1.038,4.336c0.691,0.917,1.78,1.376,3.266,1.376c1.464,0,2.548-0.455,3.255-1.364
		c0.705-0.91,1.06-2.313,1.06-4.207c0-1.899-0.355-3.303-1.06-4.211C102.879,5.926,101.795,5.473,100.331,5.473"/>
	<path clip-path="url(#SVGID_2_)" fill="#FFD131" d="M116.771,12.382V9.553h7.954v9.489h-7.234c-1.336,0-2.36-0.109-3.074-0.327
		c-0.715-0.217-1.384-0.577-2.008-1.078c-0.819-0.652-1.435-1.502-1.845-2.551c-0.41-1.048-0.614-2.302-0.614-3.759
		c0-2.823,0.614-4.907,1.845-6.256c1.229-1.351,3.128-2.025,5.696-2.025h7.234V5.8h-7.234c-1.321,0-2.284,0.427-2.89,1.283
		c-0.606,0.856-0.909,2.221-0.909,4.091c0,1.749,0.302,3.014,0.903,3.797c0.604,0.784,1.567,1.176,2.896,1.176h3.786v-3.766H116.771
		z"/>
	<path clip-path="url(#SVGID_2_)" fill="#FFD131" d="M132.437,3.046h3.568l6.823,15.995h-3.744l-1.469-3.809h-6.952l-1.426,3.809
		h-3.569L132.437,3.046z M134.09,6.224l-2.34,6.158h4.768L134.09,6.224z"/>
	<polygon clip-path="url(#SVGID_2_)" fill="#FFD131" points="144.303,3.046 149.242,3.046 153.322,15.32 157.403,3.046 
		162.321,3.046 162.321,19.041 159.025,19.041 159.297,6.581 155.195,19.041 151.625,19.041 147.392,6.452 147.73,19.041 
		144.303,19.041 	"/>
	<path clip-path="url(#SVGID_2_)" fill="#FFD131" d="M171.996,5.832c-1.218,0-2.136,0.304-2.755,0.914
		c-0.62,0.61-0.962,1.542-1.027,2.796l9.304,0.012v2.784h-9.325c0.007,1.393,0.303,2.395,0.886,3.004s1.556,0.914,2.918,0.914h5.521
		v2.786h-5.685c-1.254,0-2.24-0.107-2.958-0.321c-0.719-0.214-1.392-0.576-2.022-1.084c-0.819-0.652-1.435-1.503-1.844-2.551
		s-0.613-2.301-0.613-3.76c0-2.829,0.612-4.917,1.837-6.261c1.226-1.347,3.124-2.02,5.698-2.02h5.587v2.786H171.996z"/>
	<path clip-path="url(#SVGID_2_)" fill="#FFD131" d="M179.666,3.046h8.281c1.929,0,3.343,0.389,4.242,1.166
		c0.9,0.775,1.351,1.99,1.351,3.644c0,1.227-0.277,2.228-0.833,3.003c-0.555,0.776-1.354,1.277-2.399,1.501l3.994,6.681h-3.787
		l-3.525-6.29h-3.961v6.29h-3.362V3.046z M187.152,5.897h-4.124v4.027h4.124c1.117,0,1.894-0.154,2.329-0.458
		c0.435-0.305,0.652-0.827,0.652-1.566c0-0.732-0.213-1.25-0.637-1.55C189.074,6.047,188.291,5.897,187.152,5.897"/>
	<rect x="195.794" y="17.774" clip-path="url(#SVGID_2_)" fill="#FFFFFF" width="1.086" height="1.13"/>
	<path clip-path="url(#SVGID_2_)" fill="#FFFFFF" d="M201.031,13.523c-0.565,0-0.973,0.18-1.221,0.538
		c-0.249,0.359-0.374,0.949-0.374,1.771c0,0.713,0.12,1.214,0.358,1.505c0.238,0.292,0.65,0.438,1.236,0.438h2.243v1.13h-2.31
		c-0.509,0-0.909-0.043-1.201-0.13c-0.291-0.087-0.565-0.233-0.82-0.439c-0.332-0.265-0.582-0.61-0.749-1.035
		c-0.166-0.425-0.249-0.934-0.249-1.525c0-1.147,0.249-1.995,0.746-2.54c0.497-0.546,1.269-0.819,2.313-0.819h2.27v1.108H201.031z"
		/>
	<path clip-path="url(#SVGID_2_)" fill="#FFFFFF" d="M204.309,15.594c0-1.115,0.267-1.945,0.8-2.49s1.348-0.816,2.438-0.816
		c1.1,0,1.914,0.275,2.441,0.826c0.527,0.55,0.791,1.398,0.791,2.547c0,1.147-0.264,1.998-0.791,2.551
		c-0.527,0.554-1.342,0.831-2.441,0.831c-1.112,0-1.93-0.279-2.453-0.835S204.309,16.779,204.309,15.594 M207.547,13.399
		c-0.585,0-1.022,0.183-1.313,0.548c-0.289,0.365-0.435,0.916-0.435,1.655c0,0.801,0.141,1.387,0.421,1.76
		c0.281,0.372,0.724,0.558,1.326,0.558c0.593,0,1.033-0.185,1.321-0.554c0.285-0.369,0.429-0.938,0.429-1.706
		c0-0.771-0.144-1.341-0.429-1.709C208.58,13.583,208.14,13.399,207.547,13.399"/>
	<polygon clip-path="url(#SVGID_2_)" fill="#FFFFFF" points="212.169,12.415 214.173,12.415 215.828,17.396 217.484,12.415 
		219.479,12.415 219.479,18.904 218.142,18.904 218.252,13.85 216.588,18.904 215.139,18.904 213.423,13.797 213.559,18.904 
		212.169,18.904 	"/>
	<path clip-path="url(#SVGID_2_)" fill="#FFFFFF" d="M5.807,19.109c-1.281,0-2.319-1.038-2.319-2.318V5.358
		c0-1.28,1.111-2.319,2.392-2.319H6.65V0.03c-0.135,0-0.323-0.005-0.563-0.016C5.846,0.005,5.669,0,5.553,0
		c-0.96,0-1.764,0.058-2.408,0.173C2.5,0.289,1.952,0.467,1.5,0.707c-0.548,0.327-0.937,0.77-1.162,1.327
		C0.113,2.592,0,3.559,0,4.934v12.313c0,1.365,0.112,2.323,0.338,2.877c0.225,0.553,0.613,0.992,1.162,1.318
		c0.451,0.24,1,0.418,1.645,0.533c0.644,0.115,1.448,0.173,2.408,0.173c0.116,0,0.293-0.004,0.534-0.015
		c0.24-0.009,0.428-0.014,0.563-0.014v-3.011H5.807z"/>
	<path clip-path="url(#SVGID_2_)" fill="#FFD131" d="M24.945,11.074c0-1.801-1.462-3.261-3.262-3.261
		c-1.802,0-3.262,1.46-3.262,3.261c0,1.801,1.46,3.263,3.262,3.263C23.483,14.337,24.945,12.875,24.945,11.074"/>
	<path clip-path="url(#SVGID_2_)" fill="#FFD131" d="M13.105,11.074c0-1.801-1.459-3.261-3.261-3.261
		c-1.801,0-3.263,1.46-3.263,3.261c0,1.801,1.462,3.263,3.263,3.263C11.646,14.337,13.105,12.875,13.105,11.074"/>
	<path clip-path="url(#SVGID_2_)" fill="#FFD131" d="M15.763,20.256c1.8,0,3.261-1.461,3.261-3.262s-1.46-3.262-3.261-3.262
		c-1.801,0-3.26,1.461-3.26,3.262S13.962,20.256,15.763,20.256"/>
	<path clip-path="url(#SVGID_2_)" fill="#FFD131" d="M15.763,8.417c1.8,0,3.261-1.46,3.261-3.263c0-1.801-1.46-3.261-3.261-3.261
		c-1.801,0-3.26,1.46-3.26,3.261C12.503,6.957,13.962,8.417,15.763,8.417"/>
	<path clip-path="url(#SVGID_2_)" fill="#FFFFFF" d="M25.721,19.109c1.28,0,2.319-1.038,2.319-2.318V5.358
		c0-1.28-1.111-2.319-2.392-2.319h-0.771V0.03c0.135,0,0.323-0.005,0.563-0.016C25.68,0.005,25.857,0,25.973,0
		c0.961,0,1.765,0.058,2.408,0.173c0.646,0.115,1.194,0.293,1.645,0.534c0.548,0.327,0.936,0.77,1.161,1.327
		c0.227,0.558,0.339,1.525,0.339,2.9v12.313c0,1.365-0.113,2.323-0.339,2.877c-0.225,0.553-0.613,0.992-1.161,1.318
		c-0.451,0.24-1,0.418-1.645,0.533c-0.644,0.115-1.447,0.173-2.408,0.173c-0.116,0-0.293-0.004-0.534-0.015
		c-0.239-0.009-0.428-0.014-0.563-0.014v-3.011H25.721z"/>
</g>
</svg>
